<?xml version="1.0" encoding="utf-8"?>
<!-- Generator: Adobe Illustrator 26.3.1, SVG Export Plug-In . SVG Version: 6.00 Build 0)  -->
<svg version="1.1" id="Layer_1" xmlns="http://www.w3.org/2000/svg" xmlns:xlink="http://www.w3.org/1999/xlink" x="0px" y="0px"
	 viewBox="0 0 342.97 102.19" style="enable-background:new 0 0 342.97 102.19;" xml:space="preserve">
<style type="text/css">
	.st0{fill:#041B2E;}
</style>
<g>
	<path class="st0" d="M117.22,51.33v12.95c0,2.4,0.5,3.92,1.52,4.55c1.01,0.63,2.23,0.94,3.65,0.94h2.54v4.02H98.37v-4.02h2.54
		c1.37,0,2.57-0.29,3.6-0.86c1.04-0.57,1.56-1.98,1.56-4.22V24.45c0-2.24-0.52-3.66-1.56-4.26c-1.04-0.6-2.24-0.9-3.6-0.9h-2.54
		v-4.02h26.55v4.02h-2.54c-1.42,0-2.64,0.31-3.65,0.94c-1.01,0.63-1.52,2.14-1.52,4.55v20.65V51.33z"/>
	<path class="st0" d="M160.22,73.73v-3.78h1.07c0.98,0,1.94-0.12,2.87-0.35c0.93-0.23,1.71-0.72,2.34-1.46
		c0.63-0.74,0.94-1.86,0.94-3.35v-41c0-1.44-0.33-2.5-0.98-3.2c-0.65-0.69-1.45-1.14-2.38-1.35c-0.93-0.2-1.86-0.31-2.79-0.31
		l-1.07-0.02v-3.76h17.86v49.63c0,1.49,0.31,2.61,0.94,3.35c0.63,0.75,1.42,1.23,2.38,1.46c0.96,0.23,1.9,0.35,2.83,0.35h1.07v3.78
		H160.22z"/>
	<path class="st0" d="M213.75,73.78v-3.36l24.01-35.32h-12.29c-1.53,0-2.64,0.45-3.32,1.35c-0.68,0.9-1.33,2.47-1.93,4.71
		l-0.33,1.31h-4.34l0.9-12.62h33.84v3.44l-24.09,35.24h14.59c1.75,0,3-0.57,3.77-1.72c0.76-1.15,1.34-2.79,1.72-4.92l0.49-2.38h4.26
		l-0.41,14.26H213.75z"/>
	<path class="st0" d="M275.1,74.6c-6.56,0-11.6-1.98-15.12-5.94c-3.52-3.96-5.29-9.49-5.29-16.59c0-7.65,1.71-13.42,5.12-17.33
		c3.41-3.91,8.21-5.86,14.38-5.86c5.74,0,10.23,1.65,13.48,4.96c3.25,3.31,4.88,8.21,4.88,14.71v4.02h-27.04
		c0.17,5.68,1.22,9.82,3.16,12.41c1.94,2.6,4.71,3.89,8.32,3.89c2.84,0,5.25-0.63,7.21-1.89c1.97-1.26,3.44-2.73,4.43-4.43
		c0.6,0.27,1.08,0.73,1.43,1.35c0.35,0.63,0.53,1.35,0.53,2.17c0,1.37-0.56,2.7-1.68,4.02c-1.12,1.31-2.81,2.39-5.08,3.24
		C281.56,74.18,278.65,74.6,275.1,74.6z M281.65,47.64c0-4.26-0.56-7.62-1.68-10.08c-1.12-2.46-3.02-3.69-5.7-3.69
		c-2.57,0-4.59,1.18-6.06,3.52c-1.47,2.35-2.32,5.76-2.54,10.24H281.65z"/>
	<path class="st0" d="M294.58,73.78v-4.02h0.25c1.86,0,3.4-0.34,4.63-1.02c1.23-0.68,1.84-2.31,1.84-4.88V39.45
		c0-2.4-0.59-3.93-1.76-4.59s-2.66-0.98-4.47-0.98h-0.25v-4.02h15.08l1.56,7.05h0.41c0.71-1.64,1.52-3.06,2.42-4.26
		c0.9-1.2,2.06-2.12,3.48-2.75c1.42-0.63,3.28-0.94,5.57-0.94c3.11,0,5.42,0.55,6.92,1.64c1.5,1.09,2.25,2.68,2.25,4.75
		c0,2.19-0.79,3.92-2.38,5.2c-1.59,1.28-3.91,1.93-6.96,1.93c0-2.24-0.29-3.91-0.86-5c-0.57-1.09-1.65-1.64-3.24-1.64
		c-1.48,0-2.68,0.53-3.61,1.6c-0.93,1.07-1.65,2.39-2.17,3.97c-0.52,1.59-0.88,3.22-1.07,4.92c-0.19,1.69-0.29,3.11-0.29,4.26v13.69
		c0,2.4,0.59,3.92,1.76,4.55c1.17,0.63,2.61,0.94,4.3,0.94h2.54v4.02H294.58z"/>
	<g>
		<g>
			<path class="st0" d="M248.43,84.99h1.69v4.05c0.61-0.82,1.51-1.27,2.5-1.27c2,0,3.45,1.58,3.45,4.09c0,2.56-1.47,4.08-3.45,4.08
				c-1.02,0-1.9-0.48-2.5-1.26v1.06h-1.69V84.99z M252.12,94.44c1.36,0,2.21-1.06,2.21-2.58c0-1.51-0.85-2.59-2.21-2.59
				c-0.79,0-1.63,0.48-2,1.06v3.08C250.49,93.98,251.33,94.44,252.12,94.44z"/>
			<path class="st0" d="M258.04,97.4c0.53,0,0.89-0.16,1.11-0.68l0.39-0.89l-3.19-7.88h1.8l2.27,5.84l2.27-5.84h1.82l-3.75,9.19
				c-0.53,1.32-1.47,1.74-2.68,1.76c-0.24,0-0.71-0.05-0.95-0.11l0.26-1.51C257.57,97.35,257.85,97.4,258.04,97.4z"/>
			<path class="st0" d="M269.79,84.99h4c3.35,0,5.62,2.22,5.62,5.38c0,3.16-2.27,5.37-5.62,5.37h-4V84.99z M273.78,94.08
				c2.34,0,3.69-1.68,3.69-3.71c0-2.08-1.29-3.72-3.69-3.72h-2.11v7.43H273.78z"/>
			<path class="st0" d="M280.43,90.37c0-3.3,2.47-5.56,5.56-5.56c2.26,0,3.6,1.13,4.4,2.42l-1.61,0.82
				c-0.51-0.89-1.55-1.56-2.79-1.56c-2.05,0-3.63,1.63-3.63,3.88c0,2.26,1.58,3.88,3.63,3.88c1.24,0,2.27-0.66,2.79-1.56l1.61,0.82
				c-0.82,1.29-2.14,2.42-4.4,2.42C282.9,95.93,280.43,93.68,280.43,90.37z"/>
			<path class="st0" d="M294.42,91.21l-0.93,1.1v3.43h-1.89V84.99h1.89v5.13l4.21-5.13h2.34l-4.37,5.08l4.69,5.67h-2.32
				L294.42,91.21z"/>
			<path class="st0" d="M308.75,93.68h-5.09l-0.79,2.06h-2.06l4.22-10.75h2.35l4.22,10.75h-2.06L308.75,93.68z M304.19,92.02h4.03
				l-2.01-5.43L304.19,92.02z"/>
			<path class="st0" d="M312.47,84.99h4.72c2.26,0,3.51,1.55,3.51,3.37s-1.27,3.37-3.51,3.37h-2.84v4.01h-1.89V84.99z M316.94,86.65
				h-2.58v3.42h2.58c1.06,0,1.84-0.68,1.84-1.71C318.77,87.33,318,86.65,316.94,86.65z"/>
		</g>
	</g>
	<g>
		<path class="st0" d="M199.75,24.41h0.02h0.01h0.01h0.02c3.8-0.02,6.87-3.1,6.87-6.91c0-3.8-3.07-6.89-6.87-6.91
			c-0.01,0-0.01,0-0.01,0v0c0,0,0,0-0.01,0c0,0,0,0-0.01,0v0c0,0,0,0,0,0c0,0,0,0,0,0v0c0,0,0,0-0.01,0c0,0,0,0-0.01,0v0
			c0,0-0.01,0-0.01,0c-3.8,0.02-6.87,3.1-6.87,6.91C192.88,21.31,195.95,24.39,199.75,24.41z"/>
		<path class="st0" d="M204.7,63.25c-0.95-3.44-1.19-7.21-1.26-10.23c-0.22-8.58,2.61-15.45,4.04-18.34l0.97-1.76l0.31-0.63l0,0
			c0.09-0.21,0.15-0.45,0.15-0.7c0-0.94-0.74-1.69-1.67-1.73c-0.02,0-0.04-0.01-0.05-0.01h-7.38h-0.02h-0.01h-0.01h-0.02h-7.38
			c-0.01,0-0.02,0-0.05,0.01c-0.93,0.03-1.67,0.79-1.67,1.73c0,0.25,0.05,0.49,0.15,0.7l0,0l0.31,0.63l0.97,1.76
			c1.42,2.89,4.25,9.76,4.04,18.34c-0.07,3.02-0.31,6.79-1.26,10.23c-0.68,2.29-1.99,5.34-4.44,7.11v3.42h9.33h0.01h0.01h0.01h0h0
			h0.01h0.01h0.01h9.33v-3.42C206.69,68.58,205.38,65.54,204.7,63.25z"/>
	</g>
	<path class="st0" d="M141.53,29.73c1.35-1.84,2.69-3.68,4.15-5.44c0.36-0.43,0.72-0.88,1.1-1.32c0.41-0.48,0.83-0.94,1.27-1.39
		c0.44-0.44,0.9-0.86,1.4-1.24c0.25-0.19,0.5-0.36,0.76-0.52c0.26-0.16,0.53-0.32,0.82-0.43c0.22-0.08,0.44-0.15,0.67-0.19
		c0.61-0.13,1.24-0.17,1.86-0.21c0.53-0.03,1.06-0.04,1.59-0.05c0.38,0,0.76,0,1.14,0.01v-3.78h-12.85
		c-0.44,0.03-0.88,0.06-1.31,0.13c-1.58,0.23-3.17,1.06-4.49,1.95c-0.29,0.2-0.59,0.45-0.89,0.7c-0.5,0.42-1.01,0.87-1.52,1.38
		c-1.26,1.27-2.55,2.83-3.88,4.78l-14.16,20.33h-0.02l0.01,0.02l-0.01,0.02h0.02l14.16,20.33c1.33,1.95,2.62,3.51,3.88,4.78
		c0.51,0.51,1.02,0.97,1.52,1.38c0.3,0.25,0.6,0.5,0.89,0.7c1.31,0.89,2.91,1.71,4.49,1.95c0.43,0.06,0.87,0.1,1.31,0.13h12.85
		v-3.78c-0.38,0.01-0.76,0.01-1.14,0.01c-0.53,0-1.06-0.02-1.59-0.05c-0.62-0.04-1.25-0.08-1.86-0.21
		c-0.23-0.05-0.45-0.11-0.67-0.19c-0.29-0.11-0.56-0.27-0.82-0.43c-0.26-0.16-0.52-0.34-0.76-0.52c-0.5-0.38-0.96-0.8-1.4-1.24
		c-0.44-0.44-0.86-0.91-1.27-1.39c-0.38-0.44-0.74-0.88-1.1-1.32c-1.45-1.76-2.8-3.6-4.15-5.44c0,0-1.83-2.49-3.09-4.21
		c-3.11-4.23-7.6-10.34-7.74-10.53c0.14-0.19,4.63-6.29,7.74-10.53C139.69,32.23,141.53,29.73,141.53,29.73z"/>
</g>
<path class="st0" d="M49.2,9.52c-19.75,0-35.76,16.01-35.76,35.76S29.45,81.04,49.2,81.04s35.76-16.01,35.76-35.76
	S68.95,9.52,49.2,9.52z M56.37,65.86h-5.61c-0.25-0.01-0.51-0.01-0.76-0.02c-0.51-0.03-1.03-0.06-1.53-0.17
	c-0.19-0.04-0.37-0.09-0.55-0.16c-0.24-0.09-0.46-0.22-0.67-0.35c-0.21-0.13-0.42-0.28-0.62-0.43c-0.41-0.31-0.79-0.65-1.15-1.01
	c-0.36-0.36-0.71-0.75-1.04-1.14c-0.31-0.36-0.61-0.72-0.9-1.08c-1.19-1.44-2.29-2.95-3.4-4.45c0,0-1.5-2.04-2.54-3.45
	c-2.55-3.47-6.23-8.47-6.34-8.62c0.11-0.16,3.79-5.16,6.34-8.62c1.03-1.41,2.54-3.45,2.54-3.45c1.11-1.5,2.21-3.02,3.4-4.45
	c0.29-0.35,0.59-0.72,0.9-1.08c0.33-0.39,0.68-0.77,1.04-1.14c0.36-0.36,0.74-0.71,1.15-1.01c0.2-0.15,0.41-0.3,0.62-0.43
	c0.21-0.13,0.43-0.26,0.67-0.35c0.18-0.07,0.36-0.12,0.55-0.16c0.5-0.1,1.02-0.14,1.53-0.17c0.37-0.02,0.74-0.03,1.11-0.03h0.77
	c0.12,0,0.23,0,0.35,0v0h4.56c0.45,0.02,0.91,0.09,1.36,0.17c-0.09,0.01-0.19,0.01-0.28,0.03c-0.19,0.04-0.37,0.09-0.55,0.16
	c-0.24,0.09-0.46,0.22-0.67,0.35s-0.42,0.28-0.62,0.43c-0.41,0.31-0.79,0.65-1.15,1.01c-0.36,0.36-0.71,0.75-1.04,1.14
	c-0.31,0.36-0.61,0.72-0.9,1.08c-1.19,1.44-2.29,2.95-3.4,4.45c0,0-1.5,2.04-2.54,3.45c-2.55,3.47-6.23,8.47-6.34,8.62
	c0.11,0.16,3.79,5.16,6.34,8.62c1.03,1.41,2.54,3.45,2.54,3.45c1.11,1.5,2.21,3.02,3.4,4.45c0.29,0.35,0.59,0.72,0.9,1.08
	c0.33,0.39,0.68,0.77,1.04,1.14c0.36,0.36,0.74,0.71,1.15,1.01c0.2,0.15,0.41,0.3,0.62,0.43c0.21,0.13,0.43,0.26,0.67,0.35
	c0.18,0.07,0.36,0.12,0.55,0.16c0.06,0.01,0.13,0.01,0.19,0.02C57.52,65.79,56.95,65.86,56.37,65.86z M65.14,61.63
	c0,1.22-0.26,2.14-0.77,2.75c-0.52,0.61-1.15,1.01-1.91,1.2c-0.2,0.05-0.41,0.08-0.61,0.11c-0.06-0.01-0.13-0.01-0.19-0.02
	c-0.19-0.04-0.37-0.09-0.55-0.16c-0.24-0.09-0.46-0.22-0.67-0.35c-0.21-0.13-0.42-0.28-0.62-0.43c-0.41-0.31-0.79-0.65-1.15-1.01
	c-0.36-0.36-0.71-0.75-1.04-1.14c-0.31-0.36-0.61-0.72-0.9-1.08c-1.19-1.44-2.29-2.95-3.4-4.45c0,0-1.5-2.04-2.54-3.45
	c-2.55-3.47-6.23-8.47-6.34-8.62c0.11-0.16,3.79-5.16,6.34-8.62c1.03-1.41,2.54-3.45,2.54-3.45c1.11-1.5,2.21-3.02,3.4-4.45
	c0.29-0.35,0.59-0.72,0.9-1.08c0.33-0.39,0.68-0.77,1.04-1.14c0.36-0.36,0.74-0.71,1.15-1.01c0.2-0.15,0.41-0.3,0.62-0.43
	c0.21-0.13,0.43-0.26,0.67-0.35c0.18-0.07,0.36-0.12,0.55-0.16c0.09-0.02,0.19-0.02,0.28-0.03c0.15,0.03,0.31,0.02,0.46,0.06
	c0.76,0.17,1.41,0.54,1.95,1.11c0.54,0.57,0.81,1.44,0.81,2.62V61.63z"/>
</svg>
